#N canvas 265 79 1077 629 12;
#X declare -lin else;
#X obj 295 1005 dac~;
#X obj 368 744 vsl 30 60 0 6 0 0 empty empty empty 0 -9 0 10 #fcfcfc #000000 #000000 0 1;
#X obj 295 878 *~;
#X msg 52 56 \; pd dsp \$1;
#X obj 53 32 tgl 15 0 empty empty empty 17 7 0 10 #fcfcfc #000000 #000000 0 1;
#N canvas 0 50 450 250 (subpatch) 0;
#X array som 1000 float 3;
#A 0 0 0 0 0 0 0 0 0 0 0 0 0 0 0 0 0 0 0 0 0 0 0 0 0 0 0 0 0 0 0 0 0 0 0 0 0 0 0 0 0 0 0 0 0 0 0 0 0 0 0 0 0 0 0 0 0 0 0 0 0 0 0 0 0 0 0 0 0 0 0 0 0 0 0 0 0 0 0 0 0 0 0 0 0 0 0 0 0 0 0 0 0 0 0 0 0 0 0 0 0 0 0 0 0 0 0 0 0 0 0 0 0 0 0 0 0 0 0 0 0 0 0 0 0 0 0 0 0 0 0 0 0 0 0 0 0 0 0 0 0 0 0 0 0 0 0 0 0 0 0 0 0 0 0 0 0 0 0 0 0 0 0 0 0 0 0 0 0 0 0 0 0 0 0 0 0 0 0 0 0 0 0 0 0 0 0 0 0 0 0 0 0 0 0 0 0 0 0 0 0 0 0 0 0 0 0 0 0 0 0 0 0 0 0 0 0 0 0 0 0 0 0 0 0 0 0 0 0 0 0 0 0 0 0 0 0 0 0 0 0 0 0 0 0 0 0 0 0 0 0 0 0 0 0 0 0 0 0 0 0 0 0 0 0 0 0 0 0 0 0 0 0 0 0 0 0 0 0 0 0 0 0 0 0 0 0 0 0 0 0 0 0 0 0 0 0 0 0 0 0 0 0 0 0 0 0 0 0 0 0 0 0 0 0 0 0 0 0 0 0 0 0 0 0 0 0 0 0 0 0 0 0 0 0 0 0 0 0 0 0 0 0 0 0 0 0 0 0 0 0 0 0 0 0 0 0 0 0 0 0 0 0 0 0 0 0 0 0 0 0 0 0 0 0 0 0 0 0 0 0 0 0 0 0 0 0 0 0 0 0 0 0 0 0 0 0 0 0 0 0 0 0 0 0 0 0 0 0 0 0 0 0 0 0 0 0 0 0 0 0 0 0 0 0 0 0 0 0 0 0 0 0 0 0 0 0 0 0 0 0 0 0 0 0 0 0 0 0 0 0 0 0 0 0 0 0 0 0 0 0 0 0 0 0 0 0 0 0 0 0 0 0 0 0 0 0 0 0 0 0 0 0 0 0 0 0 0 0 0 0 0 0 0 0 0 0 0 0 0 0 0 0 0 0 0 0 0 0 0 0 0 0 0 0 0 0 0 0 0 0 0 0 0 0 0 0 0 0 0 0 0 0 0 0 0 0 0 0 0 0 0 0 0 0 0 0 0 0 0 0 0 0 0 0 0 0 0 0 0 0 0 0 0 0 0 0 0 0 0 0 0 0 0 0 0 0 0 0 0 0 0 0 0 0 0 0 0 0 0 0 0 0 0 0 0 0 0 0 0 0 0 0 0 0 0 0 0 0 0 0 0 0 0 0 0 0 0 0 0 0 0 0 0 0 0 0 0 0 0 0 0 0 0 0 0 0 0 0 0 0 0 0 0 0 0 0 0 0 0 0 0 0 0 0 0 0 0 0 0 0 0 0 0 0 0 0 0 0 0 0 0 0 0 0 0 0 0 0 0 0 0 0 0 0 0 0 0 0 0 0 0 0 0 0 0 0 0 0 0 0 0 0 0 0 0 0 0 0 0 0 0 0 0 0 0 0 0 0 0 0 0 0 0 0 0 0 0 0 0 0 0 0 0 0 0 0 0 0 0 0 0 0 0 0 0 0 0 0 0 0 0 0 0 0 0 0 0 0 0 0 0 0 0 0 0 0 0 0 0 0 0 0 0 0 0 0 0 0 0 0 0 0 0 0 0 0 0 0 0 0 0 0 0 0 0 0 0 0 0 0 0 0 0 0 0 0 0 0 0 0 0 0 0 0 0 0 0 0 0 0 0 0 0 0 0 0 0 0 0 0 0 0 0 0 0 0 0 0 0 0 0 0 0 0 0 0 0 0 0 0 0 0 0 0 0 0 0 0 0 0 0 0 0 0 0 0 0 0 0 0 0 0 0 0 0 0 0 0 0 0 0 0 0 0 0 0 0 0 0 0 0 0 0 0 0 0 0 0 0 0 0 0 0 0 0 0 0 0 0 0 0 0 0 0 0 0 0 0 0 0 0 0 0 0 0 0 0 0 0 0 0 0 0 0 0 0 0 0 0 0 0 0 0 0 0 0 0 0 0 0 0 0 0 0 0 0 0 0 0 0 0 0 0 0 0 0 0 0 0 0 0 0 0 0 0 0 0 0 0 0 0 0 0 0 0 0 0 0 0 0 0 0 0 0 0 0 0 0 0 0;
#X coords 0 1 1000 -1 200 140 1;
#X restore 41 739 graph;
#X obj 42 699 tabwrite~ som;
#X obj 89 646 tgl 15 0 empty empty graph\ sound 17 7 0 10 #fcfcfc #000000 #000000 0 1;
#X obj 89 666 metro 100;
#N canvas 62 108 1137 531 receiveOSC 1;
#X obj 134 81 netreceive 3000;
#X floatatom 228 106 4 0 0 0 - - - 0;
#X msg 136 50 send foo \$1;
#X floatatom 136 27 0 0 0 0 - - - 0;
#X obj 862 181 s Delta_absolute;
#X obj 899 210 s Theta_absolute;
#X obj 936 239 s Alpha_absolute;
#X obj 971 266 s Beta_absolute;
#X obj 997 297 s Gama_absolute;
#X floatatom 213 225 5 0 0 0 M - - 0;
#X obj 84 538 s M;
#X obj 284 107 outlet;
#X obj 265 196 s MVal;
#X listbox 403 229 20 0 0 1 ordem\ das\ ondas\ da\ máxima\ à\ mínima - - 0;
#X listbox 442 381 50 0 0 0 - - - 0;
#X obj 365 961 s val_tag;
#X obj 685 303 tgl 15 0 empty empty empty 17 7 0 10 #fcfcfc #000000 #000000 0 1;
#X obj 685 331 s headSetConneted;
#X obj 535 308 s Nota;
#X floatatom 549 280 5 0 0 0 - - - 0;
#X obj 307 245 s ordem;
#X obj 84 508 list split 1;
#X obj 732 272 s Interval;
#X floatatom 734 240 5 0 0 0 - - - 0;
#X text 804 391 Valores das ondas;
#X obj 84 475 r ordem;
#X obj 810 553 r ordem;
#X obj 810 582 list split 3;
#X obj 284 843 else/display;
#X obj 20 379 array define ValoresOndas 5;
#X obj 396 451 s ValoresOndas;
#X obj 410 905 tabread ValoresOndas;
#X obj 368 789 list;
#X obj 365 848 else/iterate;
#X obj 365 878 t f f;
#X obj 365 933 pack f f;
#X obj 396 509 r Interval;
#X obj 358 568 metro;
#X obj 346 503 tgl 20 0 empty empty empty 0 -10 0 12 #fcfcfc #000000 #000000 0 1;
#X obj 230 619 else/count 7;
#X obj 230 654 euclid4 1 0 4;
#X obj 358 593 s tick;
#X obj 196 750 s beat;
#X floatatom 488 273 5 0 0 0 - - - 0;
#X obj 788 819 == 2;
#X obj 788 844 tgl 20 0 empty empty empty 0 -10 0 12 #fcfcfc #000000 #000000 0 1;
#X msg 760 777 0 2 3;
#X obj 810 607 s Top3;
#X obj 393 759 r Top3;
#X obj 895 37 r ValoresOndas;
#X obj 895 62 unpack f f f f f;
#X obj 315 464 loadbang;
#X obj 693 202 s ATR;
#X obj 126 158 route D T A B G M MVal ordem val val_tag headSetConneted Nota Interval ATR blink, f 89;
#X obj 751 202 s blink;
#X obj 800 168 bng 20 250 50 0 empty empty empty 0 -10 0 12 #fcfcfc #000000 #000000;
#X text 564 431 Delta Theta Alfa Beta Gama;
#X msg 396 425 \$1 \$2 \$3 \$4 \$5;
#X obj 396 534 / 2;
#X connect 0 0 53 0;
#X connect 0 1 1 0;
#X connect 1 0 11 0;
#X connect 2 0 0 0;
#X connect 3 0 2 0;
#X connect 16 0 17 0;
#X connect 21 0 10 0;
#X connect 25 0 21 0;
#X connect 26 0 27 0;
#X connect 27 0 47 0;
#X connect 31 0 35 1;
#X connect 32 0 28 0;
#X connect 32 0 33 0;
#X connect 33 0 34 0;
#X connect 34 0 35 0;
#X connect 34 1 31 0;
#X connect 35 0 15 0;
#X connect 36 0 58 0;
#X connect 37 0 39 0;
#X connect 37 0 41 0;
#X connect 38 0 37 0;
#X connect 39 0 40 0;
#X connect 40 0 42 0;
#X connect 40 0 32 0;
#X connect 43 0 18 0;
#X connect 44 0 45 0;
#X connect 46 0 44 0;
#X connect 48 0 32 1;
#X connect 49 0 50 0;
#X connect 50 0 4 0;
#X connect 50 1 5 0;
#X connect 50 2 6 0;
#X connect 50 3 7 0;
#X connect 50 4 8 0;
#X connect 51 0 38 0;
#X connect 53 5 9 0;
#X connect 53 6 12 0;
#X connect 53 7 13 0;
#X connect 53 7 20 0;
#X connect 53 8 14 0;
#X connect 53 8 57 0;
#X connect 53 10 16 0;
#X connect 53 11 18 0;
#X connect 53 11 19 0;
#X connect 53 12 22 0;
#X connect 53 12 23 0;
#X connect 53 13 52 0;
#X connect 53 14 54 0;
#X connect 53 14 55 0;
#X connect 57 0 30 0;
#X connect 58 0 37 1;
#X restore 146 18 pd receiveOSC;
#X obj 149 49 tgl 15 0 empty empty empty 17 7 0 10 #fcfcfc #000000 #000000 0 1;
#X obj 718 781 rev3~ 100 90 3000 20;
#X floatatom 772 673 4 0 120 0 - - - 0;
#X text 803 673 level \, dB;
#X floatatom 800 697 4 0 100 0 - - - 0;
#X text 833 697 liveness \, 0-100;
#X floatatom 827 721 6 0 0 0 - - - 0;
#X floatatom 855 747 4 0 100 0 - - - 0;
#X text 875 721 crossover frequency \, Hz.;
#X text 890 748 HF damping \, percent;
#X obj 715 745 *~;
#X obj 716 660 vsl 30 60 0 1 0 0 empty empty empty 0 -9 0 10 #fcfcfc #000000 #000000 0 1;
#X obj 388 8 r val_tag;
#X obj 437 45 unpack f f;
#X obj 316 112 print val_tag;
#X obj 327 235 s Delta-synth;
#N canvas 48 74 1167 728 Delta-synth 0;
#X obj 84 281 soundfiler;
#N canvas 0 50 450 250 (subpatch) 0;
#X array BassDrum 103950 float 2;
#X coords 0 1 103950 -1 200 140 1;
#X restore 584 459 graph;
#X obj 290 580 line~;
#X obj 344 613 tabread4~ BassDrum;
#X obj 133 324 s size-sample;
#X msg 168 584 0 \, \$1 \$2;
#X obj 127 365 r size-sample;
#X obj 138 402 f;
#X obj 195 402 samplerate~;
#X obj 223 372 loadbang;
#X obj 166 521 /;
#X obj 138 427 t f f;
#X obj 114 553 pack f f;
#X obj 55 396 bng 15 250 50 0 empty empty empty 17 7 0 10 #fcfcfc #000000 #000000;
#X obj 308 397 bng 15 250 50 0 empty empty empty 17 7 0 10 #fcfcfc #000000 #000000;
#X floatatom 218 434 5 0 0 0 - - - 0;
#X obj 188 468 / 1000;
#X obj 20 45 loadbang;
#X obj 344 814 outlet~;
#X obj 674 370 bng 15 250 50 0 empty empty empty 17 7 0 10 #fcfcfc #000000 #000000;
#X floatatom 742 234 5 0 0 0 - - - 0;
#X obj 736 176 + 1;
#X obj 736 202 int;
#X obj 409 393 maxlib/speedlim 100;
#X floatatom 267 434 5 0 0 0 - - - 0;
#X msg 253 505 0 \, 44100 1100;
#X msg 48 199 read -resize /home/pi/Documents/Pd/musicradar-808-samples/Hits/BassDrum[BD]/E808_BD[long]-12.wav BassDrum;
#X msg 37 77 read -resize /home/pi/Documents/Pd/musicradar-808-samples/Hits/BassDrum[BD]/E808_BD[long]-09.wav BassDrum;
#X msg 41 134 read -resize /home/pi/Documents/Pd/musicradar-808-samples/Hits/BassDrum[BD]/E808_BD[long]-15.wav BassDrum;
#X msg 365 508 0 \, 103950 2357.14;
#X obj 16 330 print size-drum;
#X obj 153 625 print drum-size+length;
#X msg 139 22 read -resize 321130__meisterjaan__shaman-s-drum-very-low.wav BassDrum;
#X obj 552 695 r Top3;
#X obj 552 720 unpack f f f;
#X obj 554 788 expr $f1 + $f2 + $f3;
#X obj 554 813 > 0;
#X obj 554 838 change;
#X obj 554 863 tgl 20 0 empty empty empty 0 -10 0 12 #fcfcfc #000000 #000000 0 1;
#X obj 344 759 *~;
#X obj 552 745 == 0;
#X obj 595 748 == 0;
#X obj 637 751 == 0;
#X obj 392 698 lop~ 1;
#X msg 601 172 reset;
#X obj 603 141 r resetCounts;
#X obj 737 112 r Delta_absolute;
#X obj 549 162 r tick;
#X obj 553 209 else/count 31;
#X obj 703 278 euclid4 1 0 32;
#X obj 825 179 else/display;
#X obj 344 639 *~ 0.25;
#X obj 736 150 * 15;
#X connect 0 0 4 0;
#X connect 0 0 30 0;
#X connect 2 0 3 0;
#X connect 3 0 51 0;
#X connect 5 0 2 0;
#X connect 5 0 31 0;
#X connect 6 0 7 1;
#X connect 7 0 11 0;
#X connect 8 0 15 0;
#X connect 8 0 16 0;
#X connect 9 0 8 0;
#X connect 10 0 12 1;
#X connect 11 0 12 0;
#X connect 11 1 10 0;
#X connect 12 0 5 0;
#X connect 13 0 7 0;
#X connect 14 0 8 0;
#X connect 16 0 10 1;
#X connect 17 0 32 0;
#X connect 20 0 49 1;
#X connect 21 0 22 0;
#X connect 22 0 20 0;
#X connect 23 0 29 0;
#X connect 24 0 25 0;
#X connect 25 0 2 0;
#X connect 26 0 0 0;
#X connect 27 0 0 0;
#X connect 28 0 0 0;
#X connect 29 0 2 0;
#X connect 32 0 0 0;
#X connect 33 0 34 0;
#X connect 34 0 40 0;
#X connect 34 1 41 0;
#X connect 34 2 42 0;
#X connect 35 0 36 0;
#X connect 36 0 37 0;
#X connect 37 0 38 0;
#X connect 38 0 43 0;
#X connect 39 0 18 0;
#X connect 40 0 35 0;
#X connect 41 0 35 1;
#X connect 42 0 35 2;
#X connect 43 0 39 1;
#X connect 44 0 48 0;
#X connect 45 0 44 0;
#X connect 46 0 50 0;
#X connect 46 0 52 0;
#X connect 47 0 48 0;
#X connect 48 0 49 0;
#X connect 49 0 19 0;
#X connect 49 0 23 0;
#X connect 51 0 39 0;
#X connect 52 0 21 0;
#X restore 53 379 pd Delta-synth;
#N canvas 331 112 831 669 Theta-synth 0;
#X obj 378 797 bob~;
#X obj 377 947 outlet~;
#X obj 494 735 sig~;
#X obj 614 746 sig~;
#X obj 492 705 inlet cutoff;
#X obj 618 714 inlet resonant;
#X floatatom 274 144 5 0 0 0 - - - 0;
#X obj 302 64 + 1;
#X obj 302 90 int;
#X obj 340 499 tabread escala;
#X obj 186 541 f;
#X floatatom 159 487 5 0 0 0 - - - 0;
#X obj 284 473 t b b f;
#X obj 356 538 bng 15 250 50 0 empty empty empty 17 7 0 10 #fcfcfc #000000 #000000;
#X obj 185 579 *;
#X obj 168 635 nusmuk-audio/saw~;
#X obj 301 760 *~;
#X msg 188 437 54;
#X msg 405 372 0;
#X msg 447 375 2;
#X msg 489 377 4;
#X obj 109 385 loadbang;
#X obj 103 447 r Nota;
#X obj 458 906 env~;
#X floatatom 458 931 5 0 0 0 - - - 0;
#X obj 91 94 r tick;
#X obj 91 122 else/count 7;
#X obj 302 -57 r Theta_absolute;
#X obj 692 4 vsl 20 170 0 1 0 0 empty empty empty 0 -9 0 12 #fcfcfc #000000 #000000 0 1;
#X msg 528 378 6, f 2;
#X floatatom 692 181 12 0 0 0 - - - 0;
#X obj 603 334 r Top3;
#X obj 603 359 unpack f f f;
#X obj 603 384 == 1;
#X obj 646 387 == 1;
#X obj 688 390 == 1;
#X obj 605 427 expr $f1 + $f2 + $f3;
#X obj 605 452 > 0;
#X obj 605 477 change;
#X obj 587 522 tgl 20 0 empty empty empty 0 -10 0 12 #fcfcfc #000000 #000000 0 1;
#X msg 166 70 reset;
#X obj 168 39 r resetCounts;
#X floatatom 388 245 5 0 0 0 - - - 0;
#X obj 382 213 int;
#X obj 382 161 * 6;
#X obj 382 186 + 0.5;
#X obj 302 -31 t f f f f;
#X obj 435 602 r Interval;
#X obj 475 637 else/display;
#X obj 188 254 vradio 20 1 0 8 empty empty empty 0 -10 0 12 #fcfcfc #000000 #000000 0;
#X obj 511 76 else/lastvalue;
#X obj 482 29 t f f;
#X obj 475 117 -;
#X obj 475 142 > 0;
#X obj 462 219 sel 0 1;
#X obj 488 250 bng 20 250 50 0 empty empty empty 0 -10 0 12 #fcfcfc #000000 #000000;
#X obj 449 252 bng 20 250 50 0 empty empty empty 0 -10 0 12 #fcfcfc #000000 #000000;
#X msg 417 288 down;
#X msg 473 293 up;
#X obj 466 184 change;
#X obj 252 190 euclid4 1 0 8;
#X obj 312 720 adsr 1 20 1 30 500;
#X obj 302 38 * 7;
#X obj 302 115 change;
#X obj 246 222 b;
#X obj 423 62 change;
#X obj 377 847 *~ 1;
#X floatatom 422 667 5 0 0 0 - - - 0;
#X msg 373 642 1;
#X obj 373 582 t b b;
#X msg 320 646 0;
#X obj 263 343 else/count 6;
#X obj 323 615 delay 400;
#X obj 263 368 spigot;
#X obj 121 554 mtof;
#X obj 122 528 - 24;
#X connect 0 0 66 0;
#X connect 2 0 0 1;
#X connect 3 0 0 2;
#X connect 4 0 2 0;
#X connect 5 0 3 0;
#X connect 6 0 60 1;
#X connect 7 0 8 0;
#X connect 8 0 63 0;
#X connect 9 0 14 1;
#X connect 10 0 14 0;
#X connect 11 0 75 0;
#X connect 12 0 13 0;
#X connect 12 1 10 0;
#X connect 12 2 9 0;
#X connect 13 0 69 0;
#X connect 14 0 15 0;
#X connect 15 0 16 0;
#X connect 16 0 0 0;
#X connect 17 0 11 0;
#X connect 18 0 12 0;
#X connect 19 0 12 0;
#X connect 20 0 12 0;
#X connect 21 0 17 0;
#X connect 22 0 11 0;
#X connect 23 0 24 0;
#X connect 25 0 26 0;
#X connect 26 0 60 0;
#X connect 27 0 46 0;
#X connect 28 0 30 0;
#X connect 29 0 12 0;
#X connect 31 0 32 0;
#X connect 32 0 33 0;
#X connect 32 1 34 0;
#X connect 32 2 35 0;
#X connect 33 0 36 0;
#X connect 34 0 36 1;
#X connect 35 0 36 2;
#X connect 36 0 37 0;
#X connect 37 0 38 0;
#X connect 38 0 39 0;
#X connect 39 0 73 1;
#X connect 40 0 26 0;
#X connect 41 0 40 0;
#X connect 43 0 42 0;
#X connect 43 0 71 1;
#X connect 44 0 45 0;
#X connect 45 0 43 0;
#X connect 46 0 62 0;
#X connect 46 1 44 0;
#X connect 46 2 65 0;
#X connect 46 3 28 0;
#X connect 47 0 48 0;
#X connect 47 0 61 5;
#X connect 50 0 52 1;
#X connect 51 0 52 0;
#X connect 51 1 50 0;
#X connect 52 0 53 0;
#X connect 53 0 59 0;
#X connect 54 0 56 0;
#X connect 54 1 55 0;
#X connect 55 0 58 0;
#X connect 56 0 57 0;
#X connect 57 0 71 0;
#X connect 58 0 71 0;
#X connect 59 0 54 0;
#X connect 60 0 64 0;
#X connect 61 0 16 1;
#X connect 62 0 7 0;
#X connect 63 0 6 0;
#X connect 64 0 71 0;
#X connect 65 0 51 0;
#X connect 66 0 1 0;
#X connect 66 0 23 0;
#X connect 67 0 61 5;
#X connect 68 0 61 0;
#X connect 69 0 72 0;
#X connect 69 1 68 0;
#X connect 70 0 61 0;
#X connect 71 0 49 0;
#X connect 71 0 73 0;
#X connect 72 0 70 0;
#X connect 73 0 12 0;
#X connect 74 0 10 1;
#X connect 75 0 74 0;
#X restore 201 382 pd Theta-synth;
#X floatatom 239 336 5 0 0 0 - - - 0;
#X floatatom 310 335 5 0 0 0 - - - 0;
#X obj 188 275 bng 15 250 50 0 empty empty empty 17 7 0 10 #fcfcfc #000000 #000000;
#X obj 107 496 *~ 0.2;
#X msg 338 305 3;
#N canvas 224 99 1138 700 Alpha-synth 0;
#X msg 331 445 all \$1;
#X text 281 438 decay;
#X msg 423 407 all \$1;
#X msg 419 377 1.2;
#X obj 179 768 outlet~;
#X obj 338 -11 r Alpha-synth;
#X obj 233 128 bng 15 250 50 0 empty empty empty 17 7 0 10 #fcfcfc #000000 #000000;
#X obj 297 129 bng 15 250 50 0 empty empty empty 17 7 0 10 #fcfcfc #000000 #000000;
#X msg 368 389 2000;
#X obj 392 180 + 500;
#X floatatom 308 413 12 0 0 0 - - - 0;
#X obj 541 398 / 100;
#X obj 525 433 s Alpha-rev-send;
#X obj 338 104 t f f f;
#X obj 454 153 * 90;
#X obj 454 178 + 10;
#X floatatom 506 201 5 0 0 0 - - - 0;
#X floatatom 447 116 5 0 0 0 - - - 0;
#X obj 244 92 moses 0.3;
#X obj 92 205 tabread escala;
#X msg 87 395 216.002 270.003 360.076 405.004;
#X msg 247 341 set;
#X obj 272 186 t b b;
#X obj 326 147 bng 15 250 50 0 empty empty empty 17 7 0 10 #fcfcfc #000000 #000000;
#X msg 118 354 add2 \$1;
#X obj 87 420 list;
#X msg 99 479 0 \$1 \, 1 \$2 \, 2 \$3 \, 3 \$4;
#X obj 111 314 t b a;
#X obj 58 354 delay 1;
#X text 453 377 timbre;
#X text 54 132 muda f0;
#X floatatom 22 150 12 0 0 0 - - - 0;
#X obj 418 315 loadbang;
#X msg 247 260 set escala-m;
#X floatatom 388 47 12 0 0 0 - - - 0;
#X obj 94 234 * 216;
#X msg 108 177 0 \, 2 \, 4 \, 5;
#X obj 22 91 r Nota;
#X obj 180 592 else/compress~ 40 20 5 100 0 512;
#X obj 392 155 * 6000;
#X floatatom 281 756 5 0 0 0 - - - 0;
#X obj 281 732 env~ 16384 8192;
#X obj 184 550 *~ 0.03;
#X obj 184 525 clone synth-f 4;
#X obj 617 210 else/display;
#X floatatom 598 302 5 0 0 0 - - - 0;
#X floatatom 642 306 5 0 0 0 - - - 0;
#X floatatom 688 302 5 0 0 0 - - - 0;
#X text 667 212 3 ondas com valor mais alto neste momento;
#X text 668 232 alpha = 2;
#X obj 601 327 sel 2;
#X obj 642 329 sel 2;
#X obj 689 330 sel 2;
#X msg 611 373 1;
#X msg 654 372 0.5;
#X obj 598 266 unpack f f f f f;
#X obj 748 334 sel 2;
#X msg 701 372 0.25;
#X floatatom 671 441 5 0 0 0 - - - 0;
#X msg 762 370 0;
#X obj 180 637 *~;
#X obj 475 515 lop~ 1;
#X text 724 421 Muda o volume;
#X obj 46 503 print;
#X obj 717 545 r Top3;
#X obj 717 570 unpack f f f;
#X obj 719 638 expr $f1 + $f2 + $f3;
#X obj 719 663 > 0;
#X obj 719 688 change;
#X obj 719 713 tgl 20 0 empty empty empty 0 -10 0 12 #fcfcfc #000000 #000000 0 1;
#X obj 717 595 == 2;
#X obj 760 598 == 2;
#X obj 802 601 == 2;
#X obj 193 692 *~;
#X obj 260 677 lop~ 1;
#X obj 598 172 r Top3;
#X floatatom 525 333 5 0 0 0 - - - 0;
#X obj 619 71 r ATR;
#X floatatom 661 113 5 0 0 0 - - - 0;
#X obj 34 200 mtof;
#X obj 21 116 - 12;
#X connect 0 0 43 1;
#X connect 2 0 43 2;
#X connect 3 0 2 0;
#X connect 5 0 13 0;
#X connect 5 0 34 0;
#X connect 8 0 0 0;
#X connect 9 0 10 0;
#X connect 10 0 0 0;
#X connect 11 0 12 0;
#X connect 13 0 18 0;
#X connect 13 0 23 0;
#X connect 13 1 39 0;
#X connect 13 2 14 0;
#X connect 13 2 17 0;
#X connect 14 0 15 0;
#X connect 15 0 11 0;
#X connect 15 0 16 0;
#X connect 18 0 6 0;
#X connect 18 1 7 0;
#X connect 19 0 35 0;
#X connect 20 0 25 0;
#X connect 21 0 20 0;
#X connect 22 0 36 0;
#X connect 22 1 21 0;
#X connect 23 0 22 0;
#X connect 24 0 20 0;
#X connect 25 0 26 0;
#X connect 26 0 43 0;
#X connect 27 0 28 0;
#X connect 27 1 24 0;
#X connect 28 0 20 0;
#X connect 31 0 79 0;
#X connect 32 0 8 0;
#X connect 32 0 3 0;
#X connect 35 0 27 0;
#X connect 36 0 19 0;
#X connect 37 0 80 0;
#X connect 38 0 60 0;
#X connect 39 0 9 0;
#X connect 41 0 40 0;
#X connect 42 0 38 0;
#X connect 43 0 42 0;
#X connect 45 0 50 0;
#X connect 46 0 51 0;
#X connect 47 0 52 0;
#X connect 50 0 53 0;
#X connect 51 0 54 0;
#X connect 52 0 57 0;
#X connect 53 0 58 0;
#X connect 54 0 58 0;
#X connect 55 0 45 0;
#X connect 55 1 46 0;
#X connect 55 2 47 0;
#X connect 55 3 56 0;
#X connect 55 4 56 0;
#X connect 56 0 59 0;
#X connect 57 0 58 0;
#X connect 58 0 61 0;
#X connect 59 0 58 0;
#X connect 60 0 73 0;
#X connect 61 0 60 1;
#X connect 64 0 65 0;
#X connect 65 0 70 0;
#X connect 65 1 71 0;
#X connect 65 2 72 0;
#X connect 66 0 67 0;
#X connect 67 0 68 0;
#X connect 68 0 69 0;
#X connect 69 0 74 0;
#X connect 70 0 66 0;
#X connect 71 0 66 1;
#X connect 72 0 66 2;
#X connect 73 0 41 0;
#X connect 73 0 4 0;
#X connect 74 0 73 1;
#X connect 75 0 55 0;
#X connect 75 0 44 0;
#X connect 76 0 2 0;
#X connect 77 0 78 0;
#X connect 79 0 35 1;
#X connect 80 0 31 0;
#X restore 336 381 pd Alpha-synth;
#N canvas 64 80 1047 719 Beta-synth 0;
#X obj 327 892 bob~;
#X obj 349 1025 outlet~;
#X obj 389 836 sig~;
#X obj 503 877 sig~;
#X obj 507 845 inlet resonant;
#X floatatom 493 190 12 0 0 0 - - - 0;
#X obj 426 403 tabread escala;
#X obj 357 449 f;
#X floatatom 470 358 5 0 0 0 - - - 0;
#X floatatom 330 407 5 0 0 0 - - - 0;
#X obj 384 363 t b b f;
#X obj 429 282 bng 15 250 50 0 empty empty empty 17 7 0 10 #fcfcfc #000000 #000000;
#X obj 349 559 nusmuk-audio/saw~;
#X msg 421 591 1;
#X msg 461 592 0;
#X obj 480 450 t b b;
#X obj 453 486 delay 70;
#X obj 382 671 *~;
#X obj 379 506 *;
#X obj 320 301 loadbang;
#X msg 320 332 216;
#X msg 149 338 * 4;
#X obj 255 348 r Nota;
#X obj 631 804 r Top3;
#X obj 631 829 unpack f f f;
#X obj 633 897 expr $f1 + $f2 + $f3;
#X obj 633 922 > 0;
#X obj 633 947 change;
#X obj 633 972 tgl 20 0 empty empty empty 0 -10 0 12 #fcfcfc #000000 #000000 0 1;
#X obj 342 946 *~;
#X obj 633 1009 lop~ 1;
#X obj 147 1115 bng 20 250 50 0 empty empty empty 0 -10 0 12 #fcfcfc #000000 #000000;
#X obj 631 854 == 3;
#X obj 674 857 == 3;
#X obj 716 860 == 3;
#X obj 320 109 r tick;
#X obj 320 137 else/count 7;
#X obj 553 21 r Beta_absolute;
#X obj 628 84 vsl 20 170 0 1 0 0 empty empty empty 0 -9 0 12 #fcfcfc #000000 #000000 0 1;
#X floatatom 623 264 5 0 0 0 - - - 0;
#X obj 518 93 moses 0.5;
#X msg 374 76 reset;
#X obj 376 45 r resetCounts;
#X msg 559 364 reset;
#X obj 561 333 r resetCounts;
#X obj 390 815 mtof;
#X obj 457 662 r Interval;
#X floatatom 539 747 5 0 0 0 - - - 0;
#X obj 707 642 vsl 20 170 0 127 0 0 empty empty empty 0 -9 0 12 #fcfcfc #000000 #000000 0 1;
#X obj 457 687 / 4096;
#X obj 391 744 else/lfo -sine;
#X obj 489 633 adsr 1 5 1 30 100;
#X floatatom 354 204 5 0 0 0 - - - 0;
#X msg 364 237 max \$1;
#X obj 390 782 else/rescale 72 128;
#X obj 812 79 r ATR;
#X floatatom 919 180 12 0 0 0 - - - 0;
#X obj 852 149 else/range;
#X floatatom 852 222 12 0 0 0 - - - 0;
#X obj 746 241 * 5;
#X obj 746 266 + 1;
#X obj 746 291 + 0.5;
#X obj 746 316 int;
#X obj 824 205 vsl 20 170 0 1 0 0 empty empty empty 0 -9 0 12 #fcfcfc #000000 #000000 0 1;
#X text 885 244 minimum;
#X text 967 206 Maximum;
#X obj 746 199 / 3.1;
#X obj 312 505 mtof;
#X floatatom 249 563 5 0 0 0 - - - 0;
#X obj 253 373 - 12;
#X msg 542 144 8;
#X msg 500 145 2;
#X obj 188 254 vradio 20 1 0 8 empty empty empty 0 -10 0 12 #fcfcfc #000000 #000000 0;
#X obj 419 313 else/count 2;
#X obj 454 226 euclid4 2 0 8;
#X connect 0 0 29 0;
#X connect 2 0 0 1;
#X connect 3 0 0 2;
#X connect 4 0 3 0;
#X connect 5 0 74 1;
#X connect 6 0 18 1;
#X connect 7 0 67 0;
#X connect 9 0 7 1;
#X connect 10 0 15 0;
#X connect 10 1 7 0;
#X connect 10 2 6 0;
#X connect 11 0 73 0;
#X connect 12 0 17 0;
#X connect 13 0 51 0;
#X connect 14 0 51 0;
#X connect 15 0 16 0;
#X connect 15 1 13 0;
#X connect 16 0 14 0;
#X connect 17 0 0 0;
#X connect 18 0 12 0;
#X connect 19 0 20 0;
#X connect 20 0 9 0;
#X connect 22 0 69 0;
#X connect 23 0 24 0;
#X connect 24 0 32 0;
#X connect 24 1 33 0;
#X connect 24 2 34 0;
#X connect 25 0 26 0;
#X connect 26 0 27 0;
#X connect 27 0 28 0;
#X connect 28 0 30 0;
#X connect 29 0 1 0;
#X connect 30 0 29 1;
#X connect 32 0 25 0;
#X connect 33 0 25 1;
#X connect 34 0 25 2;
#X connect 35 0 36 0;
#X connect 36 0 74 0;
#X connect 37 0 38 0;
#X connect 37 0 40 0;
#X connect 38 0 39 0;
#X connect 40 0 71 0;
#X connect 40 1 70 0;
#X connect 41 0 36 0;
#X connect 42 0 41 0;
#X connect 43 0 73 0;
#X connect 44 0 43 0;
#X connect 45 0 2 0;
#X connect 46 0 49 0;
#X connect 49 0 47 0;
#X connect 49 0 50 0;
#X connect 50 0 48 0;
#X connect 50 0 54 0;
#X connect 51 0 17 1;
#X connect 52 0 53 0;
#X connect 53 0 73 0;
#X connect 54 0 45 0;
#X connect 55 0 57 0;
#X connect 55 0 66 0;
#X connect 57 0 58 0;
#X connect 57 1 56 0;
#X connect 59 0 60 0;
#X connect 60 0 61 0;
#X connect 61 0 62 0;
#X connect 62 0 52 0;
#X connect 66 0 59 0;
#X connect 66 0 63 0;
#X connect 67 0 68 0;
#X connect 67 0 18 0;
#X connect 69 0 9 0;
#X connect 70 0 5 0;
#X connect 71 0 5 0;
#X connect 73 0 8 0;
#X connect 73 0 10 0;
#X connect 73 0 72 0;
#X connect 74 0 11 0;
#X restore 521 395 pd Beta-synth;
#X floatatom 521 343 5 0 0 0 - - - 0;
#X floatatom 581 347 5 0 0 0 - - - 0;
#X obj 483 257 loadbang;
#X obj 641 353 bng 15 250 50 0 empty empty empty 17 7 0 10 #fcfcfc #000000 #000000;
#N canvas 459 124 801 656 Gamma-synth 0;
#X obj 93 424 clone synth 10;
#X msg 157 383 all \$1;
#X text 186 352 decay;
#X msg 267 392 all \$1;
#X obj 173 626 outlet~;
#X obj 288 229 t b b;
#X obj 139 224 random 24;
#X obj 125 158 t b b;
#X obj 81 208 f;
#X obj 81 233 + 1;
#X obj 81 258 mod 10;
#X obj 99 297 pack f f;
#X obj 346 197 metro;
#X obj 353 166 tgl 15 0 empty empty empty 17 7 0 10 #fcfcfc #000000 #000000 0 1;
#X obj 390 74 bng 15 250 50 0 empty empty empty 17 7 0 10 #fcfcfc #000000 #000000;
#X obj 331 262 random 200;
#X obj 139 249 + 90;
#X msg 264 355 2;
#X obj 201 316 loadbang;
#X obj 339 30 r Gamma-synth;
#X obj 405 130 line;
#X obj 310 66 bng 15 250 50 0 empty empty empty 17 7 0 10 #fcfcfc #000000 #000000;
#X obj 397 160 < 1;
#X msg 384 97 0 \, 1 1000;
#X floatatom 387 401 5 0 0 0 - - - 0;
#X msg 152 352 1000;
#X obj 407 225 + 400;
#X floatatom 419 263 5 0 0 0 - - - 0;
#X text 293 363 timbre;
#X obj 512 249 r Top3;
#X obj 512 274 unpack f f f;
#X obj 514 342 expr $f1 + $f2 + $f3;
#X obj 514 367 > 0;
#X obj 514 392 change;
#X obj 514 417 tgl 20 0 empty empty empty 0 -10 0 12 #fcfcfc #000000 #000000 0 1;
#X obj 138 528 *~;
#X obj 205 513 lop~ 1;
#X obj 512 299 == 4;
#X obj 555 302 == 4;
#X obj 597 305 == 4;
#X connect 0 0 35 0;
#X connect 1 0 0 1;
#X connect 3 0 0 2;
#X connect 5 0 7 0;
#X connect 5 1 15 0;
#X connect 6 0 16 0;
#X connect 7 0 8 0;
#X connect 7 1 6 0;
#X connect 8 0 9 0;
#X connect 9 0 10 0;
#X connect 10 0 8 1;
#X connect 10 0 11 0;
#X connect 11 0 0 0;
#X connect 12 0 5 0;
#X connect 13 0 12 0;
#X connect 14 0 23 0;
#X connect 15 0 26 0;
#X connect 16 0 11 1;
#X connect 17 0 3 0;
#X connect 18 0 17 0;
#X connect 18 0 25 0;
#X connect 19 0 14 0;
#X connect 20 0 22 0;
#X connect 21 0 23 0;
#X connect 22 0 13 0;
#X connect 23 0 20 0;
#X connect 24 0 3 0;
#X connect 25 0 1 0;
#X connect 26 0 12 1;
#X connect 27 0 15 1;
#X connect 29 0 30 0;
#X connect 30 0 37 0;
#X connect 30 1 38 0;
#X connect 30 2 39 0;
#X connect 31 0 32 0;
#X connect 32 0 33 0;
#X connect 33 0 34 0;
#X connect 34 0 36 0;
#X connect 35 0 4 0;
#X connect 36 0 35 1;
#X connect 37 0 31 0;
#X connect 38 0 31 1;
#X connect 39 0 31 2;
#X restore 696 391 pd Gamma-synth;
#X obj 387 207 s Theta-synth;
#X obj 464 176 s Alpha-synth;
#X obj 495 152 s Beta-synth;
#X obj 527 124 s Gamma-synth;
#X obj 436 177 bng 15 250 50 0 empty empty empty 17 7 0 10 #fcfcfc #000000 #000000;
#X obj 346 877 *~;
#X obj 860 398 vsl 15 128 0 127 0 0 empty empty empty 0 -9 0 10 #fcfcfc #000000 #000000 0 1;
#X floatatom 754 474 12 0 0 0 - - - 0;
#X obj 320 81 spigot;
#X obj 376 57 tgl 15 0 empty empty empty 17 7 0 10 #fcfcfc #000000 #000000 0 1;
#X obj 366 437 *~;
#X obj 380 406 r Alpha-rev-send;
#X obj 776 441 / 10000;
#X obj 388 669 loadbang;
#X msg 388 694 1;
#X floatatom 779 630 5 0 0 0 - - - 0;
#X obj 744 552 loadbang;
#X msg 744 577 0.8;
#X obj 480 686 r headSetConneted;
#X obj 480 771 sel 0 1;
#X msg 478 802 0 2000;
#X obj 428 784 line;
#X obj 688 450 *~ 0.002;
#X obj 52 7 loadbang;
#X obj 480 741 spigot 1;
#X obj 547 718 tgl 15 0 empty empty empty 17 7 0 10 #fcfcfc #000000 #000000 0 1;
#X msg 263 307 280;
#X msg 545 314 2600;
#X floatatom 411 742 5 0 0 0 - - - 0;
#X floatatom 165 972 5 0 0 0 - - - 0;
#X obj 165 948 env~ 16384 8192;
#X obj 40 103 cnv 15 100 60 empty empty empty 20 12 0 14 #faff00 #404040 0;
#N canvas 47 264 1189 556 escala 0;
#X obj 41 60 array define -yrange 1 2 escala 8;
#X obj 985 133 random 8;
#X obj 876 289 tabread escala;
#X obj 779 307 f;
#X obj 804 361 *;
#X floatatom 1011 162 5 0 0 0 - - - 0;
#X floatatom 803 279 5 0 0 0 - - - 0;
#X obj 820 403 osc~;
#X obj 869 464 *~;
#X obj 906 213 t b b f;
#X obj 858 503 dac~;
#X obj 988 111 bng 15 250 50 0 empty empty empty 17 7 0 10 #fcfcfc #000000 #000000;
#X floatatom 777 402 5 0 0 0 - - - 0;
#X obj 941 368 line;
#X obj 933 396 < 1;
#X floatatom 1005 394 5 0 0 0 - - - 0;
#X msg 1008 430 1;
#X msg 1044 426 0;
#X obj 375 94 r M;
#X obj 368 157 sel 1 0;
#X obj 826 117 hradio 15 1 0 8 empty empty empty 0 -8 0 10 #fcfcfc #000000 #000000 0;
#X msg 747 265 108;
#X floatatom 787 146 5 0 0 0 - - - 0;
#X msg 886 339 0 \, 1 60;
#X text 893 69 test scales;
#X obj 48 132 array define -yrange 1 2 escala-m 8;
#X text 40 21 Pythagoeran Just Intonation Major \; 1:1 9:8 5:4 4:3 3:2 5:3 or 27:16 15:8 2:1;
#X text 42 93 Pythagoeran Just Intonation minor \; 1:1 9:8 6:5 4:3 3:2 5:3 or 27:16 16:9 2:1;
#X obj 720 232 loadbang;
#X obj 372 129 < 2;
#X floatatom 426 93 5 0 0 0 - - - 0;
#X text 367 65 se indice onda max entre 0-2 ondas lentas tem mais power;
#N canvas 554 599 1055 300 escala-old 0;
#X obj 55 275 f;
#X obj 98 276 expr $f1*9/8;
#X obj 297 275 expr $f1*4/3;
#X obj 394 274 expr $f1*3/2;
#X obj 494 273 expr $f1*5/3;
#X obj 693 272 expr $f1*2;
#X obj 347 366 array set escala;
#X obj 347 335 pack f f f f f f f f;
#X msg 401 171 1;
#X obj 402 112 loadbang;
#X obj 404 208 t f f f f f f f f;
#X obj 199 277 expr $f1*5/4;
#X obj 591 272 expr $f1*15/8;
#X obj 75 590 f;
#X obj 118 591 expr $f1*9/8;
#X obj 317 590 expr $f1*4/3;
#X obj 414 589 expr $f1*3/2;
#X obj 514 588 expr $f1*5/3;
#X obj 713 587 expr $f1*2;
#X obj 367 650 pack f f f f f f f f;
#X msg 421 486 1;
#X obj 425 420 loadbang;
#X obj 411 521 t f f f f f f f f;
#X obj 217 592 expr $f1*6/5;
#X obj 610 586 expr $f1*16/9;
#X obj 367 681 array set escala-m;
#X connect 0 0 7 0;
#X connect 1 0 7 1;
#X connect 2 0 7 3;
#X connect 3 0 7 4;
#X connect 4 0 7 5;
#X connect 5 0 7 7;
#X connect 7 0 6 0;
#X connect 8 0 10 0;
#X connect 10 0 0 0;
#X connect 10 1 1 0;
#X connect 10 2 11 0;
#X connect 10 3 2 0;
#X connect 10 4 3 0;
#X connect 10 5 4 0;
#X connect 10 6 12 0;
#X connect 10 7 5 0;
#X connect 11 0 7 2;
#X connect 12 0 7 6;
#X connect 13 0 19 0;
#X connect 14 0 19 1;
#X connect 15 0 19 3;
#X connect 16 0 19 4;
#X connect 17 0 19 5;
#X connect 18 0 19 7;
#X connect 19 0 25 0;
#X connect 20 0 22 0;
#X connect 22 0 13 0;
#X connect 22 1 14 0;
#X connect 22 2 23 0;
#X connect 22 3 15 0;
#X connect 22 4 16 0;
#X connect 22 5 17 0;
#X connect 22 6 24 0;
#X connect 22 7 18 0;
#X connect 23 0 19 2;
#X connect 24 0 19 6;
#X restore 57 238 pd escala-old;
#X obj 1049 319 /;
#X floatatom 1054 353 12 0 0 0 - - - 0;
#X floatatom 1035 235 5 0 0 0 - - - 0;
#X obj 1077 270 t b f;
#X floatatom 1089 235 5 0 0 0 - - - 0;
#X msg 369 304 \; escala 0 1 1.125 1.25 1.333 1.667 1.875 2;
#X msg 364 230 \; escala 0 1 1.125 1.2 1.333 1.667 1.778 2;
#X text 375 280 escala maior;
#X text 375 207 escala menor;
#X text 1032 211 intervals calcula;
#X obj 994 468 adsr 0.5 5 1 30 200;
#X connect 1 0 5 0;
#X connect 1 0 9 0;
#X connect 2 0 4 1;
#X connect 3 0 4 0;
#X connect 4 0 7 0;
#X connect 4 0 12 0;
#X connect 6 0 3 1;
#X connect 7 0 8 0;
#X connect 8 0 10 0;
#X connect 8 0 10 1;
#X connect 9 0 23 0;
#X connect 9 1 3 0;
#X connect 9 2 2 0;
#X connect 11 0 1 0;
#X connect 13 0 14 0;
#X connect 13 0 15 0;
#X connect 14 0 43 0;
#X connect 16 0 43 0;
#X connect 17 0 43 0;
#X connect 18 0 30 0;
#X connect 18 0 29 0;
#X connect 19 0 39 0;
#X connect 19 1 38 0;
#X connect 20 0 9 0;
#X connect 20 0 22 0;
#X connect 21 0 6 0;
#X connect 23 0 13 0;
#X connect 28 0 21 0;
#X connect 29 0 19 0;
#X connect 33 0 34 0;
#X connect 35 0 33 0;
#X connect 36 0 33 0;
#X connect 36 1 33 1;
#X connect 37 0 36 0;
#X connect 43 0 8 1;
#X restore 50 122 pd escala;
#X obj 298 703 *~ 1;
#X floatatom 705 908 5 0 0 0 - - - 0;
#X obj 705 884 env~ 16384 8192;
#X floatatom 347 569 5 0 0 0 - - - 0;
#X obj 347 545 env~ 16384 8192;
#X obj 313 490 *~ 0.2;
#X obj 693 42 declare -lin else;
#X obj 422 88 route 0 1 2 3 4;
#X obj 858 125 s resetCounts;
#X obj 858 98 bng 20 250 50 0 empty empty empty 0 -10 0 12 #fcfcfc #000000 #000000;
#X msg 589 313 2.5;
#X obj 208 486 *~ 0.3;
#N canvas 645 160 450 300 BLINK-synth 0;
#X obj 124 264 outlet~;
#X obj 173 91 osc~ 3000;
#X obj 129 145 *~;
#X obj 203 149 line~;
#X msg 266 114 1 \, 0 1000;
#X obj 266 22 r blink;
#X obj 302 64 bng 20 250 50 0 empty empty empty 0 -10 0 12 #fcfcfc #000000 #000000;
#X floatatom 24 128 5 0 0 0 - - - 0;
#X obj 81 31 r Nota;
#X obj 24 152 mtof;
#X floatatom 24 177 12 0 0 0 - - - 0;
#X obj 81 56 * 2;
#X obj 123 217 *~ 0.004;
#X connect 1 0 2 0;
#X connect 2 0 12 0;
#X connect 3 0 2 1;
#X connect 4 0 3 0;
#X connect 5 0 6 0;
#X connect 5 0 4 0;
#X connect 7 0 9 0;
#X connect 8 0 11 0;
#X connect 9 0 10 0;
#X connect 11 0 7 0;
#X connect 12 0 0 0;
#X restore 926 378 pd BLINK-synth;
#X floatatom 393 823 5 0 0 0 - - - 0;
#X obj 499 479 *~ 0.04;
#X msg 562 806 5 500;
#X obj 425 927 else/compress~ 90 7 30 30 10 512;
#X obj 421 965 else/compress~ 90 7 30 30 10 512;
#X connect 1 0 2 1;
#X connect 1 0 45 1;
#X connect 1 0 86 0;
#X connect 2 0 70 0;
#X connect 2 0 89 0;
#X connect 4 0 3 0;
#X connect 7 0 8 0;
#X connect 8 0 6 0;
#X connect 9 0 10 0;
#X connect 11 0 2 0;
#X connect 11 1 45 0;
#X connect 12 0 11 2;
#X connect 14 0 11 3;
#X connect 16 0 11 4;
#X connect 17 0 11 5;
#X connect 20 0 11 0;
#X connect 21 0 20 1;
#X connect 21 0 55 0;
#X connect 22 0 23 0;
#X connect 22 0 48 0;
#X connect 23 0 80 0;
#X connect 26 0 31 0;
#X connect 27 0 84 0;
#X connect 28 0 27 0;
#X connect 29 0 27 1;
#X connect 31 0 73 0;
#X connect 32 0 29 0;
#X connect 33 0 50 0;
#X connect 33 0 78 0;
#X connect 34 0 87 0;
#X connect 36 0 34 0;
#X connect 37 0 67 0;
#X connect 37 0 83 0;
#X connect 37 0 32 0;
#X connect 37 0 66 0;
#X connect 39 0 62 0;
#X connect 44 0 41 0;
#X connect 45 0 90 0;
#X connect 46 0 52 0;
#X connect 48 0 24 0;
#X connect 49 0 48 1;
#X connect 50 0 20 0;
#X connect 51 0 50 1;
#X connect 52 0 47 0;
#X connect 52 0 62 1;
#X connect 53 0 54 0;
#X connect 54 0 1 0;
#X connect 56 0 57 0;
#X connect 57 0 21 0;
#X connect 58 0 64 0;
#X connect 59 0 60 0;
#X connect 59 1 88 0;
#X connect 60 0 61 0;
#X connect 61 0 1 0;
#X connect 62 0 20 0;
#X connect 62 0 73 0;
#X connect 63 0 4 0;
#X connect 64 0 59 0;
#X connect 65 0 64 1;
#X connect 66 0 28 0;
#X connect 67 0 35 0;
#X connect 68 0 1 0;
#X connect 70 0 69 0;
#X connect 73 0 2 0;
#X connect 73 0 45 0;
#X connect 75 0 74 0;
#X connect 77 0 76 0;
#X connect 78 0 73 0;
#X connect 78 0 77 0;
#X connect 80 0 25 0;
#X connect 80 1 40 0;
#X connect 80 2 41 0;
#X connect 80 3 42 0;
#X connect 80 4 43 0;
#X connect 82 0 81 0;
#X connect 83 0 36 0;
#X connect 84 0 20 0;
#X connect 84 0 73 0;
#X connect 85 0 73 0;
#X connect 87 0 20 0;
#X connect 87 0 73 0;
#X connect 88 0 61 0;
#X connect 89 0 0 0;
#X connect 89 0 75 0;
#X connect 90 0 0 1;
