#N canvas 454 180 701 458 12;
#X obj 82 197 phasor~;
#X obj 202 94 bang;
#X obj 82 98 t f b;
#X obj 233 131 f;
#X floatatom 285 97 5 0 0 0 - - - 0;
#X obj 227 208 vline~;
#X obj 225 233 pow~ 2;
#X obj 82 262 cos~;
#X obj 82 231 pow~ 1.2;
#X msg 285 64 800;
#X obj 264 10 loadbang;
#X obj 80 365 outlet~;
#X obj 451 36 inlet TIMBRE;
#X floatatom 458 67 12 0 0 0 - - - 0;
#X obj 334 29 inlet Decay;
#X obj 64 9 inlet NOTA-f;
#X msg 232 177 1 300 \, 0 \$1 400;
#X obj 79 289 *~ 1;
#X obj 46 164 lop~ 0.9;
#X connect 0 0 8 0;
#X connect 1 0 3 0;
#X connect 2 0 18 0;
#X connect 2 1 1 0;
#X connect 3 0 16 0;
#X connect 4 0 3 1;
#X connect 5 0 6 0;
#X connect 7 0 17 0;
#X connect 8 0 7 0;
#X connect 9 0 4 0;
#X connect 10 0 9 0;
#X connect 12 0 8 1;
#X connect 12 0 13 0;
#X connect 14 0 4 0;
#X connect 15 0 2 0;
#X connect 16 0 5 0;
#X connect 17 0 11 0;
#X connect 18 0 0 0;
